# Blender v2.92.0 OBJ File: 'GunsSafeVertikal1.blend'
# www.blender.org
mtllib spawner_gun_safe_vert_1.mtl
o Plane
v -1.000000 0.000000 3.000000
v 1.000000 0.000000 3.000000
v -1.000000 0.000000 -3.000000
v 1.000000 0.000000 -3.000000
v -1.000000 1.500000 3.000000
v 1.000000 1.500000 3.000000
v -1.000000 1.500000 -3.000000
v 1.000000 1.500000 -3.000000
v -0.900000 1.500000 2.850000
v 0.900000 1.500000 2.850000
v -0.900000 1.500000 -2.850000
v 0.900000 1.500000 -2.850000
v -0.900000 1.347165 2.850000
v 0.900000 1.347165 2.850000
v -0.900000 1.347165 -2.850000
v 0.900000 1.347165 -2.850000
v -0.855000 1.347165 2.793000
v 0.855000 1.347165 2.793000
v 0.855000 1.347165 -2.793000
v -0.855000 1.347165 -2.793000
v -0.855000 1.497165 2.793000
v 0.855000 1.497165 2.793000
v 0.855000 1.497165 -2.793000
v -0.855000 1.497165 -2.793000
v -0.002259 1.486519 -2.225912
v -0.192470 1.486519 -2.087715
v -0.119816 1.486519 -1.864108
v 0.115298 1.486519 -1.864108
v 0.187953 1.486519 -2.087715
v -0.002259 1.506519 -2.225912
v -0.192470 1.506519 -2.087715
v -0.119816 1.506519 -1.864108
v 0.115298 1.506519 -1.864108
v 0.187953 1.506519 -2.087715
v -0.002259 1.506519 -2.165912
v -0.135407 1.506519 -2.069174
v -0.084549 1.506519 -1.912649
v 0.080031 1.506519 -1.912649
v 0.130889 1.506519 -2.069174
v -0.002259 1.516519 -2.165912
v -0.135407 1.516519 -2.069174
v -0.084549 1.516519 -1.912649
v 0.080031 1.516519 -1.912649
v 0.130889 1.516519 -2.069174
v -0.082148 1.516519 -2.069174
v 0.077630 1.516519 -2.069174
v -0.082748 1.516519 -2.030043
v 0.078230 1.516519 -2.030043
v -0.082148 1.476519 -2.069174
v 0.077630 1.476519 -2.069174
v -0.082748 1.476519 -2.030043
v 0.078230 1.476519 -2.030043
v -0.002259 1.486519 1.642837
v -0.192470 1.486519 1.781034
v -0.119816 1.486519 2.004641
v 0.115298 1.486519 2.004641
v 0.187953 1.486519 1.781034
v -0.002259 1.506519 1.642837
v -0.192470 1.506519 1.781034
v -0.119816 1.506519 2.004641
v 0.115298 1.506519 2.004641
v 0.187953 1.506519 1.781034
v -0.002259 1.506519 1.702837
v -0.135407 1.506519 1.799575
v -0.084549 1.506519 1.956100
v 0.080031 1.506519 1.956100
v 0.130889 1.506519 1.799575
v -0.002259 1.516519 1.702837
v -0.135407 1.516519 1.799575
v -0.084549 1.516519 1.956100
v 0.080031 1.516519 1.956100
v 0.130889 1.516519 1.799575
v -0.082148 1.516519 1.799575
v 0.077630 1.516519 1.799575
v -0.082748 1.516519 1.838706
v 0.078230 1.516519 1.838706
v -0.082148 1.476519 1.799575
v 0.077630 1.476519 1.799575
v -0.082748 1.476519 1.838706
v 0.078230 1.476519 1.838706
vt 1.000000 0.000000
vt 0.000000 1.000000
vt 0.000000 0.000000
vt 1.000000 1.000000
vt 0.000000 1.000000
vt 1.000000 0.000000
vt 0.000000 0.000000
vt 1.000000 0.000000
vt 0.000000 0.000000
vt 1.000000 1.000000
vt 0.000000 1.000000
vt 1.000000 1.000000
vt 0.000000 0.000000
vt 0.000000 1.000000
vt 1.000000 1.000000
vt 1.000000 0.000000
vt 1.000000 1.000000
vt 0.000000 0.000000
vt 1.000000 0.000000
vt 1.000000 0.000000
vt 0.000000 1.000000
vt 0.000000 1.000000
vt 0.000000 0.000000
vt 1.000000 1.000000
vt 0.000000 0.000000
vt 0.000000 0.000000
vt 0.000000 0.000000
vt 0.000000 0.000000
vt 0.000000 0.000000
vt 0.000000 0.000000
vt 0.000000 0.000000
vt 0.000000 0.000000
vt 0.000000 0.000000
vt 0.000000 0.000000
vt 0.000000 0.000000
vt 0.000000 0.000000
vt 0.000000 0.000000
vt 0.000000 0.000000
vt 0.000000 0.000000
vt 0.000000 0.000000
vt 0.000000 0.000000
vt 0.000000 0.000000
vt 0.000000 0.000000
vt 0.000000 0.000000
vt 0.000000 0.000000
vt 0.000000 0.000000
vt 0.000000 0.000000
vt 0.000000 0.000000
vt 0.000000 0.000000
vt 0.000000 0.000000
vt 0.000000 0.000000
vt 0.000000 0.000000
vt 0.000000 0.000000
vt 0.000000 0.000000
vt 0.000000 0.000000
vt 0.000000 0.000000
vt 0.000000 0.000000
vt 0.000000 0.000000
vt 0.000000 0.000000
vt 0.000000 0.000000
vt 0.000000 0.000000
vt 0.000000 0.000000
vt 0.000000 0.000000
vt 0.000000 0.000000
vt 0.000000 0.000000
vt 0.000000 0.000000
vt 0.000000 0.000000
vt 0.000000 0.000000
vt 0.000000 0.000000
vt 0.000000 0.000000
vt 0.000000 0.000000
vt 0.000000 0.000000
vt 0.000000 0.000000
vt 0.000000 0.000000
vt 0.000000 0.000000
vt 0.000000 0.000000
vt 0.000000 0.000000
vt 0.000000 0.000000
vt 0.000000 0.000000
vt 0.000000 0.000000
vn 0.0000 1.0000 0.0000
vn 0.0000 0.0000 1.0000
vn 0.0000 0.0000 -1.0000
vn -1.0000 0.0000 0.0000
vn 1.0000 0.0000 0.0000
vn 0.0000 -1.0000 0.0000
vn 0.9511 0.0000 0.3090
vn -0.9511 0.0000 0.3090
vn 0.5878 0.0000 -0.8090
vn -0.5878 0.0000 -0.8090
vn 0.9999 0.0000 0.0153
vn -0.9999 0.0000 0.0153
usemtl None
s off
f 2/1/1 3/2/1 1/3/1
f 4/4/2 7/5/2 3/2/2
f 1/3/3 6/6/3 2/1/3
f 6/6/4 4/4/4 2/1/4
f 3/2/5 5/7/5 1/3/5
f 5/7/6 10/8/6 6/6/6
f 7/5/6 9/9/6 5/7/6
f 8/10/6 11/11/6 7/5/6
f 6/6/6 12/12/6 8/10/6
f 11/11/4 13/13/4 9/9/4
f 12/12/3 15/14/3 11/11/3
f 10/8/5 16/15/5 12/12/5
f 9/9/2 14/16/2 10/8/2
f 14/16/6 19/17/6 16/15/6
f 17/18/3 22/19/3 18/20/3
f 13/13/6 18/20/6 14/16/6
f 15/14/6 17/18/6 13/13/6
f 16/15/6 20/21/6 15/14/6
f 24/22/6 22/19/6 21/23/6
f 20/21/5 21/23/5 17/18/5
f 19/17/2 24/22/2 20/21/2
f 18/20/4 23/24/4 19/17/4
f 29/25/7 33/26/7 28/27/7
f 27/28/8 31/29/8 26/30/8
f 25/31/9 34/32/9 29/25/9
f 28/27/2 32/33/2 27/28/2
f 26/30/10 30/34/10 25/31/10
f 30/34/1 36/35/1 35/36/1
f 33/26/1 39/37/1 38/38/1
f 32/33/1 36/35/1 31/29/1
f 30/34/1 39/37/1 34/32/1
f 33/26/1 37/39/1 32/33/1
f 37/39/8 41/40/8 36/35/8
f 35/36/9 44/41/9 39/37/9
f 38/38/2 42/42/2 37/39/2
f 36/35/10 40/43/10 35/36/10
f 39/37/7 43/44/7 38/38/7
f 40/43/1 45/45/1 46/46/1
f 43/44/1 47/47/1 42/42/1
f 48/48/3 51/49/3 47/47/3
f 47/47/11 49/50/11 45/45/11
f 45/45/2 50/51/2 46/46/2
f 46/46/12 52/52/12 48/48/12
f 51/49/1 50/51/1 49/50/1
f 57/53/7 61/54/7 56/55/7
f 55/56/8 59/57/8 54/58/8
f 53/59/9 62/60/9 57/53/9
f 56/55/2 60/61/2 55/56/2
f 54/58/10 58/62/10 53/59/10
f 58/62/1 64/63/1 63/64/1
f 61/54/1 67/65/1 66/66/1
f 60/61/1 64/63/1 59/57/1
f 58/62/1 67/65/1 62/60/1
f 61/54/1 65/67/1 60/61/1
f 65/67/8 69/68/8 64/63/8
f 63/64/9 72/69/9 67/65/9
f 66/66/2 70/70/2 65/67/2
f 64/63/10 68/71/10 63/64/10
f 67/65/7 71/72/7 66/66/7
f 68/71/1 73/73/1 74/74/1
f 71/72/1 75/75/1 70/70/1
f 76/76/3 79/77/3 75/75/3
f 75/75/11 77/78/11 73/73/11
f 73/73/2 78/79/2 74/74/2
f 74/74/12 80/80/12 76/76/12
f 79/77/1 78/79/1 77/78/1
f 2/1/1 4/4/1 3/2/1
f 4/4/2 8/10/2 7/5/2
f 1/3/3 5/7/3 6/6/3
f 6/6/4 8/10/4 4/4/4
f 3/2/5 7/5/5 5/7/5
f 5/7/6 9/9/6 10/8/6
f 7/5/6 11/11/6 9/9/6
f 8/10/6 12/12/6 11/11/6
f 6/6/6 10/8/6 12/12/6
f 11/11/4 15/14/4 13/13/4
f 12/12/3 16/15/3 15/14/3
f 10/8/5 14/16/5 16/15/5
f 9/9/2 13/13/2 14/16/2
f 14/16/6 18/20/6 19/17/6
f 17/18/3 21/23/3 22/19/3
f 13/13/6 17/18/6 18/20/6
f 15/14/6 20/21/6 17/18/6
f 16/15/6 19/17/6 20/21/6
f 24/22/6 23/24/6 22/19/6
f 20/21/5 24/22/5 21/23/5
f 19/17/2 23/24/2 24/22/2
f 18/20/4 22/19/4 23/24/4
f 29/25/7 34/32/7 33/26/7
f 27/28/8 32/33/8 31/29/8
f 25/31/9 30/34/9 34/32/9
f 28/27/2 33/26/2 32/33/2
f 26/30/10 31/29/10 30/34/10
f 30/34/1 31/29/1 36/35/1
f 33/26/1 34/32/1 39/37/1
f 32/33/1 37/39/1 36/35/1
f 30/34/1 35/36/1 39/37/1
f 33/26/1 38/38/1 37/39/1
f 37/39/8 42/42/8 41/40/8
f 35/36/9 40/43/9 44/41/9
f 38/38/2 43/44/2 42/42/2
f 36/35/10 41/40/10 40/43/10
f 39/37/7 44/41/7 43/44/7
f 40/43/1 41/40/1 45/45/1
f 46/46/1 44/41/1 40/43/1
f 37/39/2 38/38/2 43/44/2
f 44/41/1 46/46/1 48/48/1
f 47/47/1 45/45/1 41/40/1
f 43/44/1 44/41/1 48/48/1
f 47/47/1 41/40/1 42/42/1
f 43/44/1 48/48/1 47/47/1
f 42/42/2 37/39/2 43/44/2
f 48/48/3 52/52/3 51/49/3
f 47/47/11 51/49/11 49/50/11
f 45/45/2 49/50/2 50/51/2
f 46/46/12 50/51/12 52/52/12
f 51/49/1 52/52/1 50/51/1
f 57/53/7 62/60/7 61/54/7
f 55/56/8 60/61/8 59/57/8
f 53/59/9 58/62/9 62/60/9
f 56/55/2 61/54/2 60/61/2
f 54/58/10 59/57/10 58/62/10
f 58/62/1 59/57/1 64/63/1
f 61/54/1 62/60/1 67/65/1
f 60/61/1 65/67/1 64/63/1
f 58/62/1 63/64/1 67/65/1
f 61/54/1 66/66/1 65/67/1
f 65/67/8 70/70/8 69/68/8
f 63/64/9 68/71/9 72/69/9
f 66/66/2 71/72/2 70/70/2
f 64/63/10 69/68/10 68/71/10
f 67/65/7 72/69/7 71/72/7
f 68/71/1 69/68/1 73/73/1
f 74/74/1 72/69/1 68/71/1
f 65/67/2 66/66/2 71/72/2
f 72/69/1 74/74/1 76/76/1
f 75/75/1 73/73/1 69/68/1
f 71/72/1 72/69/1 76/76/1
f 75/75/1 69/68/1 70/70/1
f 71/72/1 76/76/1 75/75/1
f 70/70/2 65/67/2 71/72/2
f 76/76/3 80/80/3 79/77/3
f 75/75/11 79/77/11 77/78/11
f 73/73/2 77/78/2 78/79/2
f 74/74/12 78/79/12 80/80/12
f 79/77/1 80/80/1 78/79/1
