# Blender v2.92.0 OBJ File: 'untitled.blend'
# www.blender.org
mtllib chair.mtl
o chair1
v -16.700399 15.935597 16.429401
v -16.700399 15.935603 -16.429398
v -5.749900 15.935603 -16.429398
v -5.749900 15.935597 16.429401
v -16.700399 18.404697 16.429403
v -5.749900 18.404697 16.429403
v -5.749900 18.404701 -16.429396
v -16.700399 18.404701 -16.429396
v -16.700399 16.017097 16.503502
v -5.749900 16.017097 16.503502
v -5.749900 18.323198 16.503504
v -16.700399 18.323198 16.503504
v -5.677200 16.017097 16.429401
v -5.677200 16.017101 -16.429398
v -5.677200 18.323202 -16.429396
v -5.677200 18.323198 16.429403
v -5.749900 16.017101 -16.503498
v -16.700399 16.017101 -16.503498
v -16.700399 18.323202 -16.503496
v -5.749900 18.323202 -16.503496
v -16.773100 16.017101 -16.429398
v -16.773100 16.017097 16.429401
v -16.773100 18.323198 16.429403
v -16.773100 18.323202 -16.429396
v -5.498100 15.935597 16.429401
v -5.498100 15.935603 -16.429398
v 5.452400 15.935603 -16.429398
v 5.452400 15.935597 16.429401
v -5.498100 18.404697 16.429403
v 5.452400 18.404697 16.429403
v 5.452400 18.404701 -16.429396
v -5.498100 18.404701 -16.429396
v -5.498100 16.017097 16.503502
v 5.452400 16.017097 16.503502
v 5.452400 18.323198 16.503504
v -5.498100 18.323198 16.503504
v 5.525100 16.017097 16.429401
v 5.525100 16.017101 -16.429398
v 5.525100 18.323202 -16.429396
v 5.525100 18.323198 16.429403
v 5.452400 16.017101 -16.503498
v -5.498100 16.017101 -16.503498
v -5.498100 18.323202 -16.503496
v 5.452400 18.323202 -16.503496
v -5.570800 16.017101 -16.429398
v -5.570800 16.017097 16.429401
v -5.570800 18.323198 16.429403
v -5.570800 18.323202 -16.429396
v 5.749900 15.935597 16.429401
v 5.749900 15.935603 -16.429398
v 16.700399 15.935603 -16.429398
v 16.700399 15.935597 16.429401
v 5.749900 18.404697 16.429403
v 16.700399 18.404697 16.429403
v 16.700399 18.404701 -16.429396
v 5.749900 18.404701 -16.429396
v 5.749900 16.017097 16.503502
v 16.700399 16.017097 16.503502
v 16.700399 18.323198 16.503504
v 5.749900 18.323198 16.503504
v 16.773100 16.017097 16.429401
v 16.773100 16.017101 -16.429398
v 16.773100 18.323202 -16.429396
v 16.773100 18.323198 16.429403
v 16.700399 16.017101 -16.503498
v 5.749900 16.017101 -16.503498
v 5.749900 18.323202 -16.503496
v 16.700399 18.323202 -16.503496
v 5.677200 16.017101 -16.429398
v 5.677200 16.017097 16.429401
v 5.677200 18.323198 16.429403
v 5.677200 18.323202 -16.429396
v 11.093000 15.851598 12.596203
v 11.093000 9.719098 12.596202
v -10.791600 9.719098 12.596202
v -10.791600 15.851598 12.596203
v 11.093000 15.851598 14.252703
v -10.791600 15.851598 14.252703
v -10.791600 9.719098 14.252702
v 11.093000 9.719098 14.252702
v -12.295900 15.851598 11.234503
v -12.295900 9.719098 11.234502
v -12.295900 9.719102 -11.092498
v -12.295900 15.851602 -11.092497
v -13.919600 15.851598 11.234503
v -13.919600 15.851602 -11.092497
v -13.919600 9.719102 -11.092498
v -13.919600 9.719098 11.234502
v 12.625200 15.851602 -11.092998
v 12.625200 9.719102 -11.092999
v 12.625200 9.719098 11.233902
v 12.625200 15.851598 11.233903
v 14.248900 15.851602 -11.092998
v 14.248900 15.851598 11.233903
v 14.248900 9.719098 11.233902
v 14.248900 9.719102 -11.092999
v -10.796300 15.851602 -12.342797
v -10.796300 9.719102 -12.342798
v 11.088400 9.719102 -12.342798
v 11.088400 15.851602 -12.342797
v -10.796300 15.851602 -13.999297
v 11.088400 15.851602 -13.999297
v 11.088400 9.719102 -13.999298
v -10.796300 9.719102 -13.999298
v -10.668300 17.041698 10.988803
v -10.668300 17.041698 14.341303
v -10.668300 -18.404701 14.341297
v -10.668300 -18.404701 10.988797
v -14.088600 17.041698 10.988803
v -14.088600 -18.404701 10.988797
v -14.088600 17.041698 14.341303
v -14.088600 -18.404701 14.341297
v -14.088600 17.041702 -10.837497
v -14.088600 17.041702 -14.189997
v -14.088600 -18.404697 -14.190002
v -14.088600 -18.404697 -10.837502
v -10.668300 17.041702 -10.837497
v -10.668300 -18.404697 -10.837502
v -10.668300 17.041702 -14.189997
v -10.668300 -18.404697 -14.190002
v 11.023700 17.041698 10.954903
v 14.376200 17.041698 10.954903
v 14.376200 -18.404701 10.954897
v 11.023700 -18.404701 10.954897
v 11.023700 17.041698 14.375203
v 11.023700 -18.404701 14.375197
v 14.376200 17.041698 14.375203
v 14.376200 -18.404701 14.375197
v 14.410100 17.041702 -14.189997
v 14.410100 17.041702 -10.837497
v 14.410100 -18.404697 -10.837502
v 14.410100 -18.404697 -14.190002
v 10.989800 17.041702 -14.189997
v 10.989800 -18.404697 -14.190002
v 10.989800 17.041702 -10.837497
v 10.989800 -18.404697 -10.837502
v -10.791600 -4.194002 12.596199
v -10.791600 -0.649802 12.596200
v 11.093000 -0.649802 12.596200
v 11.093000 -4.194002 12.596199
v -10.791600 -4.194002 14.252699
v 11.093000 -4.194002 14.252699
v 11.093000 -0.649802 14.252700
v -10.791600 -0.649802 14.252700
v 14.248900 -0.649802 11.233900
v 14.248900 -4.194002 11.233899
v 14.248900 -4.193998 -11.093001
v 14.248900 -0.649798 -11.093000
v 12.625200 -0.649802 11.233900
v 12.625200 -0.649798 -11.093000
v 12.625200 -4.193998 -11.093001
v 12.625200 -4.194002 11.233899
v 11.088400 -4.193998 -12.342801
v 11.088400 -0.649798 -12.342800
v -10.796300 -0.649798 -12.342800
v -10.796300 -4.193998 -12.342801
v 11.088400 -4.193997 -13.999301
v -10.796300 -4.193997 -13.999301
v -10.796300 -0.649798 -13.999300
v 11.088400 -0.649798 -13.999300
v -13.919600 -4.194002 11.234499
v -13.919600 -0.649802 11.234500
v -13.919600 -0.649798 -11.092500
v -13.919600 -4.193998 -11.092501
v -12.295900 -4.194002 11.234499
v -12.295900 -4.193998 -11.092501
v -12.295900 -0.649798 -11.092500
v -12.295900 -0.649802 11.234500
vt 0.183500 0.030800
vt 0.307700 0.403600
vt 0.183500 0.403600
vt 0.030500 0.403600
vt 0.154800 0.030800
vt 0.154800 0.403600
vt 0.030600 0.430900
vt 0.154700 0.404800
vt 0.154700 0.430900
vt 0.003100 0.030800
vt 0.029200 0.403600
vt 0.003100 0.403600
vt 0.154700 0.003600
vt 0.030600 0.029700
vt 0.030600 0.003600
vt 0.182200 0.403600
vt 0.156100 0.030800
vt 0.182200 0.030800
vt 0.155800 0.431000
vt 0.154900 0.432100
vt 0.030400 0.432100
vt 0.029500 0.431000
vt 0.155800 0.003500
vt 0.154900 0.002400
vt 0.030400 0.002400
vt 0.029500 0.003500
vt 0.155800 0.404700
vt 0.029500 0.404700
vt 0.030600 0.404800
vt 0.155800 0.029800
vt 0.154700 0.029700
vt 0.030500 0.030800
vt 0.029500 0.029800
vt 0.001800 0.403600
vt 0.001800 0.030800
vt 0.801600 0.030800
vt 0.925900 0.403600
vt 0.801600 0.403600
vt 0.648700 0.403600
vt 0.773000 0.030800
vt 0.773000 0.403600
vt 0.648800 0.430900
vt 0.772900 0.404800
vt 0.772900 0.430900
vt 0.621200 0.030800
vt 0.647400 0.403600
vt 0.621200 0.403600
vt 0.772900 0.003600
vt 0.648800 0.029700
vt 0.648800 0.003600
vt 0.800400 0.403600
vt 0.774200 0.030800
vt 0.800400 0.030800
vt 0.774000 0.431000
vt 0.773000 0.432100
vt 0.648600 0.432100
vt 0.647600 0.431000
vt 0.774000 0.003400
vt 0.773000 0.002400
vt 0.648600 0.002400
vt 0.647600 0.003400
vt 0.774000 0.404700
vt 0.647600 0.404700
vt 0.648800 0.404800
vt 0.774000 0.029800
vt 0.772900 0.029700
vt 0.648700 0.030800
vt 0.647600 0.029800
vt 0.620000 0.403600
vt 0.620000 0.030800
vt 0.492100 0.030800
vt 0.616300 0.403600
vt 0.492100 0.403600
vt 0.339100 0.403600
vt 0.463400 0.030800
vt 0.463400 0.403600
vt 0.339200 0.430900
vt 0.463300 0.404800
vt 0.463300 0.430900
vt 0.311700 0.030800
vt 0.337800 0.403600
vt 0.311700 0.403600
vt 0.463300 0.003600
vt 0.339200 0.029700
vt 0.339200 0.003600
vt 0.490800 0.403600
vt 0.464700 0.030800
vt 0.490800 0.030800
vt 0.464400 0.431000
vt 0.463500 0.432100
vt 0.339000 0.432100
vt 0.338100 0.431000
vt 0.464400 0.003500
vt 0.463500 0.002400
vt 0.339000 0.002400
vt 0.338100 0.003400
vt 0.464400 0.404700
vt 0.338100 0.404700
vt 0.339200 0.404800
vt 0.464400 0.029800
vt 0.463300 0.029700
vt 0.339100 0.030800
vt 0.338100 0.029800
vt 0.310400 0.403600
vt 0.310400 0.030800
vt 0.901300 0.678700
vt 0.831700 0.927000
vt 0.831700 0.678700
vt 0.989600 0.927000
vt 0.920000 0.678700
vt 0.989600 0.678700
vt 0.920000 0.927000
vt 0.738400 0.745000
vt 0.668800 0.998300
vt 0.668800 0.745000
vt 0.826400 0.998300
vt 0.756800 0.745000
vt 0.826400 0.745000
vt 0.756800 0.998300
vt 0.900900 0.420900
vt 0.831300 0.674200
vt 0.831300 0.420900
vt 0.988900 0.674200
vt 0.919300 0.420900
vt 0.988900 0.420900
vt 0.919300 0.674200
vt 0.594100 0.993300
vt 0.663700 0.745000
vt 0.663700 0.993300
vt 0.505800 0.745000
vt 0.575400 0.993300
vt 0.505800 0.993300
vt 0.575400 0.745000
vt 0.407200 0.666600
vt 0.005100 0.628600
vt 0.407200 0.628600
vt 0.005100 0.589800
vt 0.407200 0.589800
vt 0.407200 0.743400
vt 0.005100 0.705400
vt 0.407200 0.705400
vt 0.005100 0.666600
vt 0.412400 0.549200
vt 0.814500 0.587200
vt 0.412400 0.587200
vt 0.412400 0.433500
vt 0.814500 0.472300
vt 0.412400 0.472300
vt 0.814500 0.510400
vt 0.412400 0.510400
vt 0.814500 0.549200
vt 0.408000 0.548400
vt 0.005900 0.510400
vt 0.408000 0.510400
vt 0.005900 0.471600
vt 0.408000 0.471600
vt 0.005900 0.433500
vt 0.408000 0.433500
vt 0.408000 0.587200
vt 0.005900 0.548400
vt 0.815100 0.743400
vt 0.413000 0.705400
vt 0.815100 0.705400
vt 0.413000 0.666600
vt 0.815100 0.666600
vt 0.413000 0.628600
vt 0.815100 0.628600
vt 0.413000 0.589800
vt 0.815100 0.589800
vt 0.160900 0.993300
vt 0.201100 0.745000
vt 0.201100 0.993300
vt 0.219900 0.745000
vt 0.260100 0.993300
vt 0.219900 0.993300
vt 0.142100 0.745000
vt 0.160900 0.745000
vt 0.078300 0.998300
vt 0.118500 0.745000
vt 0.118500 0.998300
vt 0.019700 0.745000
vt 0.059900 0.998300
vt 0.019700 0.998300
vt 0.136900 0.998300
vt 0.059900 0.745000
vt 0.078300 0.745000
vt 0.444100 0.993300
vt 0.484300 0.745000
vt 0.484300 0.993300
vt 0.385100 0.745000
vt 0.425300 0.993300
vt 0.385100 0.993300
vt 0.503100 0.993300
vt 0.425300 0.745000
vt 0.444100 0.745000
vt 0.362700 0.745000
vt 0.322400 0.998300
vt 0.322400 0.745000
vt 0.304000 0.998300
vt 0.263800 0.745000
vt 0.304000 0.745000
vt 0.381100 0.998300
vt 0.362700 0.998300
vt 0.307700 0.030800
vt 0.029200 0.030800
vt 0.156100 0.403600
vt 0.925900 0.030800
vt 0.647400 0.030800
vt 0.774200 0.403600
vt 0.616300 0.030800
vt 0.337800 0.030800
vt 0.464700 0.403600
vt 0.901300 0.927000
vt 0.738400 0.998300
vt 0.900900 0.674200
vt 0.594100 0.745000
vt 0.005100 0.743400
vt 0.814500 0.433500
vt 0.005900 0.587200
vt 0.413000 0.743400
vt 0.260100 0.745000
vt 0.142100 0.993300
vt 0.136900 0.745000
vt 0.503100 0.745000
vt 0.263800 0.998300
vt 0.381100 0.745000
vn 0.0000 -1.0000 -0.0000
vn 0.0000 1.0000 0.0000
vn 0.0000 -0.0000 1.0000
vn 1.0000 0.0000 0.0000
vn 0.0000 0.0000 -1.0000
vn -1.0000 0.0000 0.0000
vn -0.6021 -0.5371 0.5907
vn 0.6022 -0.5372 0.5905
vn -0.6021 -0.5371 -0.5907
vn 0.6023 -0.5373 -0.5904
vn -0.6022 0.5373 0.5905
vn 0.6022 0.5372 0.5905
vn -0.6022 0.5373 -0.5905
vn 0.6022 0.5372 -0.5905
vn -0.7463 -0.6657 -0.0000
vn -0.7462 -0.6657 -0.0000
vn -0.0000 -0.6731 -0.7396
vn 0.7462 -0.6657 -0.0000
vn 0.7463 -0.6657 -0.0000
vn 0.0000 -0.6731 0.7396
vn -0.0000 0.6731 0.7396
vn 0.7462 0.6657 0.0000
vn 0.0000 0.6731 -0.7396
vn -0.7462 0.6657 0.0000
vn 0.7141 -0.0000 0.7000
vn 0.7142 -0.0000 0.7000
vn -0.7138 -0.0000 0.7003
vn 0.7141 0.0000 -0.7000
vn 0.7142 0.0000 -0.7000
vn -0.7138 0.0000 -0.7003
vn -0.6023 -0.5373 -0.5903
vn -0.6023 0.5373 0.5904
vn -0.6023 0.5373 -0.5904
vn 0.6023 0.5373 -0.5904
vn -0.7141 -0.0000 0.7000
vn -0.7142 -0.0000 0.7000
vn -0.7142 0.0000 -0.7000
vn -0.7141 0.0000 -0.7000
vn -0.6023 -0.5373 0.5904
vn 0.6021 -0.5371 0.5907
vn -0.6023 -0.5373 -0.5904
vn -0.6022 0.5372 0.5905
vn 0.6022 0.5373 0.5905
vn -0.6021 0.5371 -0.5907
vn 0.6022 0.5373 -0.5905
vn 0.7138 0.0000 0.7003
vn 0.7138 0.0000 -0.7003
usemtl Default_OBJ
s 1
f 2/1/1 4/2/1 1/3/1
f 6/4/2 8/5/2 5/6/2
f 10/7/3 12/8/3 9/9/3
f 14/10/4 16/11/4 13/12/4
f 18/13/5 20/14/5 17/15/5
f 22/16/6 24/17/6 21/18/6
f 9/9/7 22/19/7 1/20/7
f 4/21/8 13/22/8 10/7/8
f 21/23/9 18/13/9 2/24/9
f 3/25/10 17/15/10 14/26/10
f 12/8/11 5/6/11 23/27/11
f 16/28/12 6/4/12 11/29/12
f 24/30/13 8/5/13 19/31/13
f 20/14/14 7/32/14 15/33/14
f 22/16/15 2/1/16 1/3/15
f 18/13/17 3/25/17 2/24/17
f 14/10/18 4/34/19 3/35/18
f 10/7/20 1/20/20 4/21/20
f 12/8/21 6/4/21 5/6/21
f 16/11/22 7/32/22 6/4/22
f 20/14/23 8/5/23 7/32/23
f 24/17/24 5/6/24 8/5/24
f 13/22/25 11/29/26 10/7/25
f 23/27/27 9/9/27 12/8/27
f 17/15/28 15/33/29 14/26/28
f 21/23/30 19/31/30 18/13/30
f 26/36/1 28/37/1 25/38/1
f 30/39/2 32/40/2 29/41/2
f 34/42/3 36/43/3 33/44/3
f 38/45/4 40/46/4 37/47/4
f 42/48/5 44/49/5 41/50/5
f 46/51/6 48/52/6 45/53/6
f 33/44/7 46/54/7 25/55/7
f 28/56/8 37/57/8 34/42/8
f 45/58/31 42/48/31 26/59/31
f 27/60/10 41/50/10 38/61/10
f 36/43/32 29/41/32 47/62/32
f 40/63/12 30/39/12 35/64/12
f 48/65/33 32/40/33 43/66/33
f 44/49/34 31/67/34 39/68/34
f 46/51/16 26/36/16 25/38/16
f 42/48/17 27/60/17 26/59/17
f 38/45/18 28/69/18 27/70/18
f 34/42/20 25/55/20 28/56/20
f 36/43/21 30/39/21 29/41/21
f 40/46/22 31/67/22 30/39/22
f 44/49/23 32/40/23 31/67/23
f 48/52/24 29/41/24 32/40/24
f 37/57/25 35/64/26 34/42/25
f 47/62/35 33/44/36 36/43/35
f 41/50/28 39/68/29 38/61/28
f 45/58/37 43/66/38 42/48/37
f 50/71/1 52/72/1 49/73/1
f 54/74/2 56/75/2 53/76/2
f 58/77/3 60/78/3 57/79/3
f 62/80/4 64/81/4 61/82/4
f 66/83/5 68/84/5 65/85/5
f 70/86/6 72/87/6 69/88/6
f 57/79/39 70/89/39 49/90/39
f 52/91/40 61/92/40 58/77/40
f 69/93/41 66/83/41 50/94/41
f 51/95/10 65/85/10 62/96/10
f 60/78/42 53/76/42 71/97/42
f 64/98/43 54/74/43 59/99/43
f 72/100/44 56/75/44 67/101/44
f 68/84/45 55/102/45 63/103/45
f 70/86/16 50/71/16 49/73/16
f 66/83/17 51/95/17 50/94/17
f 62/80/18 52/104/18 51/105/18
f 58/77/20 49/90/20 52/91/20
f 60/78/21 54/74/21 53/76/21
f 64/81/22 55/102/22 54/74/22
f 68/84/23 56/75/23 55/102/23
f 72/87/24 53/76/24 56/75/24
f 61/92/46 59/99/46 58/77/46
f 71/97/35 57/79/36 60/78/35
f 65/85/47 63/103/47 62/96/47
f 69/93/37 67/101/38 66/83/37
f 74/106/5 76/107/5 73/108/5
f 78/109/3 80/110/3 77/111/3
f 79/112/1 74/106/1 80/110/1
f 82/113/4 84/114/4 81/115/4
f 86/116/6 88/117/6 85/118/6
f 87/119/1 82/113/1 88/117/1
f 90/120/6 92/121/6 89/122/6
f 94/123/4 96/124/4 93/125/4
f 95/126/1 90/120/1 96/124/1
f 98/127/3 100/128/3 97/129/3
f 102/130/5 104/131/5 101/132/5
f 103/133/1 98/127/1 104/131/1
f 106/134/4 108/135/4 105/136/4
f 105/136/5 110/137/5 109/138/5
f 109/139/6 112/140/6 111/141/6
f 111/141/3 107/142/3 106/134/3
f 114/143/6 116/144/6 113/145/6
f 113/146/3 118/147/3 117/148/3
f 117/148/4 120/149/4 119/150/4
f 119/150/5 115/151/5 114/143/5
f 122/152/5 124/153/5 121/154/5
f 121/154/6 126/155/6 125/156/6
f 125/156/3 128/157/3 127/158/3
f 127/159/4 123/160/4 122/152/4
f 130/161/4 132/162/4 129/163/4
f 129/163/5 134/164/5 133/165/5
f 133/165/6 136/166/6 135/167/6
f 135/167/3 131/168/3 130/169/3
f 138/170/5 140/171/5 137/172/5
f 142/173/3 144/174/3 141/175/3
f 140/171/1 141/175/1 137/172/1
f 138/170/2 143/176/2 139/177/2
f 146/178/4 148/179/4 145/180/4
f 150/181/6 152/182/6 149/183/6
f 148/179/2 149/184/2 145/180/2
f 146/178/1 151/185/1 147/186/1
f 154/187/3 156/188/3 153/189/3
f 158/190/5 160/191/5 157/192/5
f 156/188/1 157/193/1 153/189/1
f 154/187/2 159/194/2 155/195/2
f 162/196/6 164/197/6 161/198/6
f 166/199/4 168/200/4 165/201/4
f 164/197/1 165/201/1 161/198/1
f 162/196/2 167/202/2 163/203/2
f 2/1/1 3/204/1 4/2/1
f 6/4/2 7/32/2 8/5/2
f 10/7/3 11/29/3 12/8/3
f 14/10/4 15/205/4 16/11/4
f 18/13/5 19/31/5 20/14/5
f 22/16/6 23/206/6 24/17/6
f 22/16/15 21/18/16 2/1/16
f 18/13/17 17/15/17 3/25/17
f 14/10/18 13/12/19 4/34/19
f 10/7/20 9/9/20 1/20/20
f 12/8/21 11/29/21 6/4/21
f 16/11/22 15/205/22 7/32/22
f 20/14/23 19/31/23 8/5/23
f 24/17/24 23/206/24 5/6/24
f 13/22/25 16/28/26 11/29/26
f 23/27/27 22/19/27 9/9/27
f 17/15/28 20/14/29 15/33/29
f 21/23/30 24/30/30 19/31/30
f 26/36/1 27/207/1 28/37/1
f 30/39/2 31/67/2 32/40/2
f 34/42/3 35/64/3 36/43/3
f 38/45/4 39/208/4 40/46/4
f 42/48/5 43/66/5 44/49/5
f 46/51/6 47/209/6 48/52/6
f 46/51/16 45/53/16 26/36/16
f 42/48/17 41/50/17 27/60/17
f 38/45/18 37/47/18 28/69/18
f 34/42/20 33/44/20 25/55/20
f 36/43/21 35/64/21 30/39/21
f 40/46/22 39/208/22 31/67/22
f 44/49/23 43/66/23 32/40/23
f 48/52/24 47/209/24 29/41/24
f 37/57/25 40/63/26 35/64/26
f 47/62/35 46/54/36 33/44/36
f 41/50/28 44/49/29 39/68/29
f 45/58/37 48/65/38 43/66/38
f 50/71/1 51/210/1 52/72/1
f 54/74/2 55/102/2 56/75/2
f 58/77/3 59/99/3 60/78/3
f 62/80/4 63/211/4 64/81/4
f 66/83/5 67/101/5 68/84/5
f 70/86/6 71/212/6 72/87/6
f 70/86/16 69/88/16 50/71/16
f 66/83/17 65/85/17 51/95/17
f 62/80/18 61/82/18 52/104/18
f 58/77/20 57/79/20 49/90/20
f 60/78/21 59/99/21 54/74/21
f 64/81/22 63/211/22 55/102/22
f 68/84/23 67/101/23 56/75/23
f 72/87/24 71/212/24 53/76/24
f 61/92/46 64/98/46 59/99/46
f 71/97/35 70/89/36 57/79/36
f 65/85/47 68/84/47 63/103/47
f 69/93/37 72/100/38 67/101/38
f 74/106/5 75/213/5 76/107/5
f 78/109/3 79/112/3 80/110/3
f 79/112/1 75/213/1 74/106/1
f 82/113/4 83/214/4 84/114/4
f 86/116/6 87/119/6 88/117/6
f 87/119/1 83/214/1 82/113/1
f 90/120/6 91/215/6 92/121/6
f 94/123/4 95/126/4 96/124/4
f 95/126/1 91/215/1 90/120/1
f 98/127/3 99/216/3 100/128/3
f 102/130/5 103/133/5 104/131/5
f 103/133/1 99/216/1 98/127/1
f 106/134/4 107/142/4 108/135/4
f 105/136/5 108/135/5 110/137/5
f 109/139/6 110/217/6 112/140/6
f 111/141/3 112/140/3 107/142/3
f 114/143/6 115/151/6 116/144/6
f 113/146/3 116/218/3 118/147/3
f 117/148/4 118/147/4 120/149/4
f 119/150/5 120/149/5 115/151/5
f 122/152/5 123/160/5 124/153/5
f 121/154/6 124/153/6 126/155/6
f 125/156/3 126/155/3 128/157/3
f 127/159/4 128/219/4 123/160/4
f 130/161/4 131/220/4 132/162/4
f 129/163/5 132/162/5 134/164/5
f 133/165/6 134/164/6 136/166/6
f 135/167/3 136/166/3 131/168/3
f 138/170/5 139/177/5 140/171/5
f 142/173/3 143/221/3 144/174/3
f 140/171/1 142/173/1 141/175/1
f 138/170/2 144/222/2 143/176/2
f 146/178/4 147/186/4 148/179/4
f 150/181/6 151/185/6 152/182/6
f 148/179/2 150/223/2 149/184/2
f 146/178/1 152/182/1 151/185/1
f 154/187/3 155/195/3 156/188/3
f 158/190/5 159/194/5 160/191/5
f 156/188/1 158/224/1 157/193/1
f 154/187/2 160/191/2 159/194/2
f 162/196/6 163/203/6 164/197/6
f 166/199/4 167/225/4 168/200/4
f 164/197/1 166/199/1 165/201/1
f 162/196/2 168/226/2 167/202/2
